<svg xmlns="http://www.w3.org/2000/svg" viewBox="0 0 605.11 505.07"><defs><style>.cls-1{fill:none}</style></defs><title>zdlogo</title><g id="Layer_1_copy" data-name="Layer 1 copy"><path d="M909.8,493.19C880,445,824.18,412.61,760.29,412.61h-91.4L698,372.32l58.28-80.58h-345a113.13,113.13,0,0,0,103.08,80.58h79.56l-29.14,40.29-58.27,80.58-18.88,26.08-10.27,14.2-58.05,80.28-.22.3H756.31a45.36,45.36,0,0,0,18.79-4,42.82,42.82,0,0,0,8.4-5,39.22,39.22,0,0,0,16-31.27c0-12.79-6.38-24.18-16.34-31.56a43.8,43.8,0,0,0-8.51-4.93,45.48,45.48,0,0,0-18.29-3.8H600.14l-12.61-8.37,23.08-31.92h173c25,5,46,20,58.06,40.28a77.21,77.21,0,0,1-.71,80.58c-13.36,21.61-37,37-64.71,40.29H526a113.1,113.1,0,0,0-108.32,80.58H760.29q5.44,0,10.79-.31c59.34-3.42,110.58-34.83,138.71-80.27a154.3,154.3,0,0,0,17.68-40.29,152.32,152.32,0,0,0,0-80.58A154.38,154.38,0,0,0,909.8,493.19Z" class="cls-1" transform="translate(-353.48 -260.8)"/><path d="M952.05,525.23a185.24,185.24,0,0,0-21.19-48.33,199.09,199.09,0,0,0-73.37-69.17,212.9,212.9,0,0,0-102.44-26.06H724.2L811.63,260.8H364.52l11.86,39.78a144.06,144.06,0,0,0,131.3,102.64l20.44,0-51.93,71.81-18.88,26.09-68.37,94.55L353.48,645h91.37q-5.56,3.47-10.88,7.49a145.07,145.07,0,0,0-51.19,73.58l-11.91,39.8H755.05c4.2,0,8.43-.12,12.57-.37,67.85-3.91,128.87-39.37,163.22-94.84a185.39,185.39,0,0,0,21.22-48.4,183.27,183.27,0,0,0,0-97Zm-24.58,88.83a154.3,154.3,0,0,1-17.68,40.29c-28.14,45.44-79.37,76.85-138.71,80.27q-5.35.31-10.79.31H417.66A113.1,113.1,0,0,1,526,654.35H776.29C804,651,827.63,635.67,841,614.06a77.21,77.21,0,0,0,.71-80.58c-12.06-20.26-33.07-35.25-58.06-40.28h-173l-23.08,31.92,12.61,8.37H756.31a45.48,45.48,0,0,1,18.29,3.8,43.8,43.8,0,0,1,8.51,4.93c10,7.39,16.34,18.77,16.34,31.56a39.22,39.22,0,0,1-16,31.27,42.82,42.82,0,0,1-8.4,5,45.36,45.36,0,0,1-18.79,4H419.07l.22-.3,58.05-80.28,10.27-14.2,18.88-26.08,58.27-80.58,29.14-40.29H514.34a113.13,113.13,0,0,1-103.08-80.58h345L698,372.32l-29.14,40.29h91.4c63.89,0,119.68,32.41,149.51,80.58a154.38,154.38,0,0,1,17.68,40.28,152.32,152.32,0,0,1,0,80.58Z" transform="translate(-353.48 -260.8)"/></g></svg>
